<?xml version="1.0" encoding="UTF-8" standalone="no"?>
<!-- Created with Inkscape (http://www.inkscape.org/) -->

<svg
   xmlns:dc="http://purl.org/dc/elements/1.1/"
   xmlns:cc="http://creativecommons.org/ns#"
   xmlns:rdf="http://www.w3.org/1999/02/22-rdf-syntax-ns#"
   xmlns:svg="http://www.w3.org/2000/svg"
   xmlns="http://www.w3.org/2000/svg"
   xmlns:sodipodi="http://sodipodi.sourceforge.net/DTD/sodipodi-0.dtd"
   xmlns:inkscape="http://www.inkscape.org/namespaces/inkscape"
   width="23.985332"
   height="24.176672"
   id="svg3039"
   version="1.1"
   inkscape:version="0.48.4 r9939"
   sodipodi:docname="playthinglogo.svg">
  <defs
     id="defs3041" />
  <sodipodi:namedview
     id="base"
     pagecolor="#ffffff"
     bordercolor="#666666"
     borderopacity="1.0"
     inkscape:pageopacity="0.0"
     inkscape:pageshadow="2"
     inkscape:zoom="6.0988031"
     inkscape:cx="-26.09716"
     inkscape:cy="6.581023"
     inkscape:document-units="px"
     inkscape:current-layer="layer1"
     showgrid="false"
     fit-margin-top="0"
     fit-margin-left="0"
     fit-margin-right="0"
     fit-margin-bottom="0"
     inkscape:window-width="1362"
     inkscape:window-height="712"
     inkscape:window-x="0"
     inkscape:window-y="18"
     inkscape:window-maximized="0" />
  <metadata
     id="metadata3044">
    <rdf:RDF>
      <cc:Work
         rdf:about="">
        <dc:format>image/svg+xml</dc:format>
        <dc:type
           rdf:resource="http://purl.org/dc/dcmitype/StillImage" />
        <dc:title></dc:title>
      </cc:Work>
    </rdf:RDF>
  </metadata>
  <g
     inkscape:label="Layer 1"
     inkscape:groupmode="layer"
     id="layer1"
     transform="translate(-314.3523,-279.64696)">
    <g
       id="g3859"
       transform="matrix(0.9184029,0,0,0.9184029,26.620336,23.812689)">
      <g
         inkscape:export-ydpi="83.971573"
         inkscape:export-xdpi="83.971573"
         inkscape:export-filename="/home/dbain/Downloads/alteroo/plaything/playthinglogo.png"
         transform="matrix(0.16797728,0.04133333,-0.04133333,0.16797728,298.23528,219.39269)"
         id="g3015"
         style="font-size:59.77380371px;font-style:normal;font-variant:normal;font-weight:normal;font-stretch:normal;line-height:125%;letter-spacing:0px;word-spacing:0px;fill:none;stroke:#ffffff;stroke-width:3.57828522;stroke-miterlimit:4;stroke-opacity:1;stroke-dasharray:none;font-family:Liberation Sans;-inkscape-font-specification:Liberation Sans">
        <path
           inkscape:connector-curvature="0"
           id="path3017"
           d="m 238.54303,390.10892 c -4e-5,3.21053 -0.46703,6.12917 -1.40095,8.75593 -0.91455,2.62679 -2.24739,4.87414 -3.99854,6.74207 -1.75122,1.86793 -3.89156,3.30779 -6.42101,4.31959 -2.52952,1.01179 -5.39952,1.51769 -8.61,1.51769 -3.38564,0 -6.35293,-0.52535 -8.90186,-1.57606 -2.54896,-1.07017 -4.66984,-2.54895 -6.36264,-4.43634 -1.69282,-1.90684 -2.96729,-4.16392 -3.82342,-6.77125 -0.85614,-2.60731 -1.28421,-5.45785 -1.28421,-8.55163 0,-3.21048 0.44753,-6.10966 1.34258,-8.69755 0.89505,-2.58783 2.20843,-4.78654 3.94017,-6.59613 1.73172,-1.82898 3.86232,-3.22993 6.39183,-4.20285 2.54893,-0.9923 5.46757,-1.48847 8.75592,-1.48851 3.26886,4e-5 6.16804,0.49621 8.69756,1.48851 2.54891,0.99238 4.67952,2.40305 6.39183,4.23203 1.73168,1.82905 3.04507,4.03749 3.94016,6.62532 0.89501,2.58789 1.34254,5.46762 1.34258,8.63918"
           sodipodi:nodetypes="ccccsccsssccccccc"
           style="fill:none;stroke:#ffffff;stroke-width:3.57828522;stroke-miterlimit:4;stroke-opacity:1;stroke-dasharray:none" />
      </g>
      <g
         inkscape:export-ydpi="83.971573"
         inkscape:export-xdpi="83.971573"
         inkscape:export-filename="/home/dbain/Downloads/alteroo/plaything/playthinglogo.png"
         style="font-size:59.77380371px;font-style:normal;font-variant:normal;font-weight:normal;font-stretch:normal;line-height:125%;letter-spacing:0px;word-spacing:0px;fill:none;stroke:#ffffff;stroke-width:1.25824904;stroke-miterlimit:4;stroke-opacity:1;stroke-dasharray:none;font-family:Liberation Sans;-inkscape-font-specification:Liberation Sans"
         id="g3011"
         transform="matrix(0.47770404,0.11754615,-0.11754615,0.47770404,269.56965,78.309097)">
        <path
           style="fill:none;stroke:#ffffff;stroke-width:1.25824904;stroke-miterlimit:4;stroke-opacity:1;stroke-dasharray:none"
           sodipodi:nodetypes="ccccsccsssccccccc"
           d="m 238.54303,390.10892 c -4e-5,3.21053 -0.46703,6.12917 -1.40095,8.75593 -0.91455,2.62679 -2.24739,4.87414 -3.99854,6.74207 -1.75122,1.86793 -3.89156,3.30779 -6.42101,4.31959 -2.52952,1.01179 -5.39952,1.51769 -8.61,1.51769 -3.38564,0 -6.35293,-0.52535 -8.90186,-1.57606 -2.54896,-1.07017 -4.66984,-2.54895 -6.36264,-4.43634 -1.69282,-1.90684 -2.96729,-4.16392 -3.82342,-6.77125 -0.85614,-2.60731 -1.28421,-5.45785 -1.28421,-8.55163 0,-3.21048 0.44753,-6.10966 1.34258,-8.69755 0.89505,-2.58783 2.20843,-4.78654 3.94017,-6.59613 1.73172,-1.82898 3.86232,-3.22993 6.39183,-4.20285 2.54893,-0.9923 5.46757,-1.48847 8.75592,-1.48851 3.26886,4e-5 6.16804,0.49621 8.69756,1.48851 2.54891,0.99238 4.67952,2.40305 6.39183,4.23203 1.73168,1.82905 3.04507,4.03749 3.94016,6.62532 0.89501,2.58789 1.34254,5.46762 1.34258,8.63918"
           id="path3013"
           inkscape:connector-curvature="0" />
      </g>
      <g
         inkscape:export-ydpi="83.971573"
         inkscape:export-xdpi="83.971573"
         inkscape:export-filename="/home/dbain/Downloads/alteroo/plaything/playthinglogo.png"
         style="font-size:59.77380371px;font-style:normal;font-variant:normal;font-weight:normal;font-stretch:normal;line-height:125%;letter-spacing:0px;word-spacing:0px;fill:none;stroke:#ffffff;stroke-width:5.14082813;stroke-miterlimit:4;stroke-opacity:1;stroke-dasharray:none;font-family:Liberation Sans;-inkscape-font-specification:Liberation Sans"
         id="g3787"
         transform="matrix(0.11692098,0.02877013,-0.02877013,0.11692098,302.74524,246.7392)">
        <path
           style="fill:none;stroke:#ffffff;stroke-width:5.14082813;stroke-miterlimit:4;stroke-opacity:1;stroke-dasharray:none"
           sodipodi:nodetypes="ccccsccsssccccccc"
           d="m 238.54303,390.10892 c -4e-5,3.21053 -0.46703,6.12917 -1.40095,8.75593 -0.91455,2.62679 -2.24739,4.87414 -3.99854,6.74207 -1.75122,1.86793 -3.89156,3.30779 -6.42101,4.31959 -2.52952,1.01179 -5.39952,1.51769 -8.61,1.51769 -3.38564,0 -6.35293,-0.52535 -8.90186,-1.57606 -2.54896,-1.07017 -4.66984,-2.54895 -6.36264,-4.43634 -1.69282,-1.90684 -2.96729,-4.16392 -3.82342,-6.77125 -0.85614,-2.60731 -1.28421,-5.45785 -1.28421,-8.55163 0,-3.21048 0.44753,-6.10966 1.34258,-8.69755 0.89505,-2.58783 2.20843,-4.78654 3.94017,-6.59613 1.73172,-1.82898 3.86232,-3.22993 6.39183,-4.20285 2.54893,-0.9923 5.46757,-1.48847 8.75592,-1.48851 3.26886,4e-5 6.16804,0.49621 8.69756,1.48851 2.54891,0.99238 4.67952,2.40305 6.39183,4.23203 1.73168,1.82905 3.04507,4.03749 3.94016,6.62532 0.89501,2.58789 1.34254,5.46762 1.34258,8.63918"
           id="path3789"
           inkscape:connector-curvature="0" />
      </g>
      <g
         inkscape:export-ydpi="83.971573"
         inkscape:export-xdpi="83.971573"
         inkscape:export-filename="/home/dbain/Downloads/alteroo/plaything/playthinglogo.png"
         transform="matrix(0.08613522,0.02119485,-0.02119485,0.08613522,305.70807,263.64732)"
         id="g3791"
         style="font-size:59.77380371px;font-style:normal;font-variant:normal;font-weight:normal;font-stretch:normal;line-height:125%;letter-spacing:0px;word-spacing:0px;fill:none;stroke:#ffffff;stroke-width:6.97822142;stroke-miterlimit:4;stroke-opacity:1;stroke-dasharray:none;font-family:Liberation Sans;-inkscape-font-specification:Liberation Sans">
        <path
           inkscape:connector-curvature="0"
           id="path3793"
           d="m 238.54303,390.10892 c -4e-5,3.21053 -0.46703,6.12917 -1.40095,8.75593 -0.91455,2.62679 -2.24739,4.87414 -3.99854,6.74207 -1.75122,1.86793 -3.89156,3.30779 -6.42101,4.31959 -2.52952,1.01179 -5.39952,1.51769 -8.61,1.51769 -3.38564,0 -6.35293,-0.52535 -8.90186,-1.57606 -2.54896,-1.07017 -4.66984,-2.54895 -6.36264,-4.43634 -1.69282,-1.90684 -2.96729,-4.16392 -3.82342,-6.77125 -0.85614,-2.60731 -1.28421,-5.45785 -1.28421,-8.55163 0,-3.21048 0.44753,-6.10966 1.34258,-8.69755 0.89505,-2.58783 2.20843,-4.78654 3.94017,-6.59613 1.73172,-1.82898 3.86232,-3.22993 6.39183,-4.20285 2.54893,-0.9923 5.46757,-1.48847 8.75592,-1.48851 3.26886,4e-5 6.16804,0.49621 8.69756,1.48851 2.54891,0.99238 4.67952,2.40305 6.39183,4.23203 1.73168,1.82905 3.04507,4.03749 3.94016,6.62532 0.89501,2.58789 1.34254,5.46762 1.34258,8.63918"
           sodipodi:nodetypes="ccccsccsssccccccc"
           style="fill:none;stroke:#ffffff;stroke-width:6.97822142;stroke-miterlimit:4;stroke-opacity:1;stroke-dasharray:none" />
      </g>
    </g>
  </g>
</svg>
